<svg width="95" height="29" viewBox="0 0 95 29" fill="none" xmlns="http://www.w3.org/2000/svg">
<path d="M8.29297 26.0693C8.94857 26.0693 9.54232 25.9395 10.0742 25.6797C10.6185 25.4076 11.0638 24.987 11.4102 24.418C11.7565 23.8366 11.9544 23.082 12.0039 22.1543H15.084C15.0345 23.4902 14.6943 24.6654 14.0635 25.6797C13.445 26.6816 12.6286 27.4671 11.6143 28.0361C10.6123 28.5928 9.50521 28.8711 8.29297 28.8711C6.99414 28.8711 5.8623 28.6608 4.89746 28.2402C3.94499 27.8197 3.15332 27.2135 2.52246 26.4219C1.90397 25.6178 1.4401 24.6468 1.13086 23.5088C0.821615 22.3584 0.666992 21.0534 0.666992 19.5938V17.3301C0.666992 15.8704 0.821615 14.5716 1.13086 13.4336C1.4401 12.2832 1.90397 11.3122 2.52246 10.5205C3.15332 9.71647 3.94499 9.10417 4.89746 8.68359C5.8623 8.26302 6.99414 8.05273 8.29297 8.05273C9.65365 8.05273 10.8288 8.34342 11.8184 8.9248C12.8203 9.49382 13.5996 10.3226 14.1562 11.4111C14.7253 12.4873 15.0345 13.7923 15.084 15.3262H12.0039C11.9544 14.3366 11.7751 13.514 11.4658 12.8584C11.1566 12.1904 10.736 11.6956 10.2041 11.374C9.6722 11.04 9.03516 10.873 8.29297 10.873C7.42708 10.873 6.70964 11.0277 6.14062 11.3369C5.58398 11.6338 5.14486 12.0667 4.82324 12.6357C4.50163 13.2048 4.27279 13.8851 4.13672 14.6768C4.01302 15.4684 3.95117 16.3529 3.95117 17.3301V19.5938C3.95117 20.571 4.01302 21.4616 4.13672 22.2656C4.27279 23.0573 4.49544 23.7376 4.80469 24.3066C5.1263 24.8757 5.57161 25.3148 6.14062 25.624C6.70964 25.9209 7.42708 26.0693 8.29297 26.0693ZM28.7217 25.0674V14.1758C28.7217 13.3841 28.598 12.7471 28.3506 12.2646C28.1156 11.7822 27.7568 11.4297 27.2744 11.207C26.8044 10.9844 26.2106 10.873 25.4932 10.873C24.8005 10.873 24.2005 11.0153 23.6934 11.2998C23.1986 11.5843 22.8151 11.9616 22.543 12.4316C22.2832 12.9017 22.1533 13.4212 22.1533 13.9902H18.8691C18.8691 13.2728 19.0238 12.5615 19.333 11.8564C19.6546 11.1514 20.1123 10.5143 20.7061 9.94531C21.2998 9.36393 22.0111 8.90625 22.8398 8.57227C23.681 8.22591 24.6211 8.05273 25.6602 8.05273C26.8971 8.05273 27.9919 8.25684 28.9443 8.66504C29.8968 9.06087 30.6452 9.71029 31.1895 10.6133C31.7337 11.5163 32.0059 12.7161 32.0059 14.2129V24.1211C32.0059 24.7891 32.0553 25.5003 32.1543 26.2549C32.2656 27.0094 32.4202 27.6589 32.6182 28.2031V28.5H29.2227C29.0618 28.1042 28.9382 27.5785 28.8516 26.9229C28.765 26.2549 28.7217 25.6364 28.7217 25.0674ZM29.2412 16.3281L29.2783 18.7402H26.9961C26.2168 18.7402 25.5055 18.8268 24.8623 19C24.2314 19.1732 23.6872 19.4268 23.2295 19.7607C22.7718 20.0824 22.4193 20.4844 22.1719 20.9668C21.9368 21.4492 21.8193 21.9997 21.8193 22.6182C21.8193 23.4222 21.9307 24.0654 22.1533 24.5479C22.376 25.0179 22.71 25.3581 23.1553 25.5684C23.6006 25.7786 24.1634 25.8838 24.8438 25.8838C25.6725 25.8838 26.4023 25.6921 27.0332 25.3086C27.6641 24.9251 28.1527 24.4613 28.499 23.917C28.8577 23.3727 29.0247 22.8656 29 22.3955L29.7236 23.9355C29.6742 24.418 29.5133 24.9437 29.2412 25.5127C28.9814 26.0693 28.6165 26.6074 28.1465 27.127C27.6764 27.6341 27.1198 28.0547 26.4766 28.3887C25.8457 28.7103 25.1344 28.8711 24.3428 28.8711C23.18 28.8711 22.1595 28.6484 21.2812 28.2031C20.4154 27.7578 19.7412 27.1022 19.2588 26.2363C18.7764 25.3704 18.5352 24.3005 18.5352 23.0264C18.5352 22.0615 18.7021 21.1709 19.0361 20.3545C19.3701 19.5381 19.8649 18.833 20.5205 18.2393C21.1761 17.6331 21.9987 17.1631 22.9883 16.8291C23.9902 16.4951 25.1468 16.3281 26.458 16.3281H29.2412ZM40.3926 12.71V28.5H37.1084V8.42383H40.207L40.3926 12.71ZM39.5947 17.7012L38.2588 17.6455C38.2464 16.2725 38.401 15.0046 38.7227 13.8418C39.0566 12.6667 39.5267 11.6462 40.1328 10.7803C40.7513 9.91439 41.4873 9.24642 42.3408 8.77637C43.1943 8.29395 44.1406 8.05273 45.1797 8.05273C45.9961 8.05273 46.7383 8.1888 47.4062 8.46094C48.0742 8.7207 48.6432 9.14128 49.1133 9.72266C49.5833 10.304 49.9421 11.0586 50.1895 11.9863C50.4492 12.9017 50.5791 14.0212 50.5791 15.3447V28.5H47.2949V15.3076C47.2949 14.2562 47.1774 13.415 46.9424 12.7842C46.7197 12.141 46.3734 11.6771 45.9033 11.3926C45.4456 11.0957 44.8643 10.9473 44.1592 10.9473C43.516 10.9473 42.916 11.1266 42.3594 11.4854C41.8027 11.8441 41.3141 12.3389 40.8936 12.9697C40.4854 13.6006 40.1637 14.3242 39.9287 15.1406C39.7061 15.9447 39.5947 16.7982 39.5947 17.7012ZM62.4727 26.0693C63.1283 26.0693 63.722 25.9395 64.2539 25.6797C64.7982 25.4076 65.2435 24.987 65.5898 24.418C65.9362 23.8366 66.1341 23.082 66.1836 22.1543H69.2637C69.2142 23.4902 68.874 24.6654 68.2432 25.6797C67.6247 26.6816 66.8083 27.4671 65.7939 28.0361C64.792 28.5928 63.6849 28.8711 62.4727 28.8711C61.1738 28.8711 60.042 28.6608 59.0771 28.2402C58.1247 27.8197 57.333 27.2135 56.7021 26.4219C56.0837 25.6178 55.6198 24.6468 55.3105 23.5088C55.0013 22.3584 54.8467 21.0534 54.8467 19.5938V17.3301C54.8467 15.8704 55.0013 14.5716 55.3105 13.4336C55.6198 12.2832 56.0837 11.3122 56.7021 10.5205C57.333 9.71647 58.1247 9.10417 59.0771 8.68359C60.042 8.26302 61.1738 8.05273 62.4727 8.05273C63.8333 8.05273 65.0085 8.34342 65.998 8.9248C67 9.49382 67.7793 10.3226 68.3359 11.4111C68.9049 12.4873 69.2142 13.7923 69.2637 15.3262H66.1836C66.1341 14.3366 65.9548 13.514 65.6455 12.8584C65.3363 12.1904 64.9157 11.6956 64.3838 11.374C63.8519 11.04 63.2148 10.873 62.4727 10.873C61.6068 10.873 60.8893 11.0277 60.3203 11.3369C59.7637 11.6338 59.3245 12.0667 59.0029 12.6357C58.6813 13.2048 58.4525 13.8851 58.3164 14.6768C58.1927 15.4684 58.1309 16.3529 58.1309 17.3301V19.5938C58.1309 20.571 58.1927 21.4616 58.3164 22.2656C58.4525 23.0573 58.6751 23.7376 58.9844 24.3066C59.306 24.8757 59.7513 25.3148 60.3203 25.624C60.8893 25.9209 61.6068 26.0693 62.4727 26.0693ZM80.248 28.8711C79.0482 28.8711 77.9658 28.6917 77.001 28.333C76.0361 27.9743 75.2135 27.43 74.5332 26.7002C73.8529 25.958 73.3333 25.0241 72.9746 23.8984C72.6159 22.7728 72.4365 21.443 72.4365 19.9092V17.6455C72.4365 15.8766 72.6406 14.3799 73.0488 13.1553C73.4694 11.9307 74.0322 10.9473 74.7373 10.2051C75.4424 9.45052 76.2402 8.90625 77.1309 8.57227C78.0215 8.22591 78.9368 8.05273 79.877 8.05273C81.1387 8.05273 82.2148 8.25684 83.1055 8.66504C83.9961 9.07324 84.7197 9.67936 85.2764 10.4834C85.833 11.2874 86.2412 12.277 86.501 13.4521C86.7731 14.6273 86.9092 15.9818 86.9092 17.5156V19.4268H74.3662V16.625H83.625V16.1611C83.5755 15.1221 83.4333 14.2067 83.1982 13.415C82.9756 12.6234 82.6045 12.0049 82.085 11.5596C81.5654 11.1019 80.8294 10.873 79.877 10.873C79.2708 10.873 78.708 10.9782 78.1885 11.1885C77.6813 11.3864 77.2422 11.7389 76.8711 12.2461C76.5124 12.7409 76.2279 13.4274 76.0176 14.3057C75.8197 15.1839 75.7207 16.2972 75.7207 17.6455V19.9092C75.7207 20.9854 75.8197 21.9131 76.0176 22.6924C76.2279 23.4593 76.5309 24.0964 76.9268 24.6035C77.335 25.0983 77.8298 25.4694 78.4111 25.7168C79.0049 25.9518 79.679 26.0693 80.4336 26.0693C81.5345 26.0693 82.4437 25.859 83.1611 25.4385C83.8786 25.0055 84.5033 24.4551 85.0352 23.7871L86.7607 25.8467C86.402 26.3538 85.932 26.8424 85.3506 27.3125C84.7816 27.7702 84.0765 28.1475 83.2354 28.4443C82.4066 28.7288 81.4108 28.8711 80.248 28.8711ZM94.4053 0V28.5H91.1396V0H94.4053Z" fill="white"/>
</svg>
