<svg width="41" height="41" viewBox="0 0 41 41" fill="none" xmlns="http://www.w3.org/2000/svg">
<path d="M41 20.5C41 23.1921 40.4698 25.8578 39.4395 28.345C38.4093 30.8322 36.8993 33.0921 34.9957 34.9957C33.0921 36.8993 30.8322 38.4093 28.345 39.4395C25.8578 40.4698 23.1921 41 20.5 41V20.5H41Z" fill="#FF5353"/>
<path d="M20.5 41C17.8079 41 15.1422 40.4697 12.655 39.4395C10.1678 38.4093 7.90791 36.8993 6.00431 34.9957C4.10071 33.0921 2.59069 30.8322 1.56047 28.345C0.530249 25.8578 -2.35351e-07 23.1921 0 20.5L20.5 20.5V41Z" fill="#FFFF53"/>
<path d="M0 20.5C2.35351e-07 17.8079 0.530252 15.1422 1.56047 12.655C2.59069 10.1678 4.10071 7.90791 6.00431 6.00431C7.90792 4.10071 10.1678 2.59069 12.655 1.56047C15.1422 0.530249 17.8079 -3.53026e-07 20.5 0L20.5 20.5L0 20.5Z" fill="#1BACCD"/>
<path d="M20.5 0C23.1921 -1.17675e-07 25.8578 0.530251 28.345 1.56047C30.8322 2.59069 33.0921 4.10071 34.9957 6.00431C36.8993 7.90791 38.4093 10.1678 39.4395 12.655C40.4697 15.1422 41 17.8079 41 20.5H20.5L20.5 0Z" fill="#651BCD"/>
</svg>
