<svg width="59" height="68" viewBox="0 0 59 68" fill="none" xmlns="http://www.w3.org/2000/svg">
<path d="M8.1377 5.82715V21.5H5.11914V9.52246L2.13281 10.6719V8.1582L7.80469 5.82715H8.1377Z" fill="white"/>
<path d="M57.6729 18.9971V21.5H48.4561V19.3623L52.6885 13.9805C53.0967 13.4219 53.4154 12.9277 53.6445 12.498C53.8737 12.0684 54.0384 11.6852 54.1387 11.3486C54.2389 11.0049 54.2891 10.679 54.2891 10.3711C54.2891 9.91276 54.2354 9.51888 54.1279 9.18945C54.0205 8.85286 53.8594 8.59505 53.6445 8.41602C53.4368 8.22982 53.179 8.13672 52.8711 8.13672C52.4987 8.13672 52.1908 8.2513 51.9473 8.48047C51.7038 8.70964 51.5212 9.02474 51.3994 9.42578C51.2848 9.81966 51.2275 10.2673 51.2275 10.7686H48.209C48.209 9.83757 48.3988 8.98177 48.7783 8.20117C49.165 7.41341 49.7057 6.79036 50.4004 6.33203C51.1022 5.86654 51.9437 5.63379 52.9248 5.63379C53.8773 5.63379 54.6794 5.81283 55.3311 6.1709C55.9827 6.52897 56.4733 7.04102 56.8027 7.70703C57.1393 8.36589 57.3076 9.15723 57.3076 10.0811C57.3076 10.5967 57.2396 11.1016 57.1035 11.5957C56.9674 12.0827 56.7741 12.5697 56.5234 13.0566C56.2728 13.5365 55.9613 14.027 55.5889 14.5283C55.2236 15.0296 54.8154 15.5488 54.3643 16.0859L52.3232 18.9971H57.6729Z" fill="white"/>
<path d="M4.16309 48.2939H5.63477C6.00716 48.2939 6.3151 48.208 6.55859 48.0361C6.80208 47.8571 6.98112 47.6064 7.0957 47.2842C7.21029 46.9548 7.26758 46.5716 7.26758 46.1348C7.26758 45.748 7.21387 45.4079 7.10645 45.1143C6.99902 44.8135 6.83431 44.5771 6.6123 44.4053C6.3903 44.2262 6.111 44.1367 5.77441 44.1367C5.5166 44.1367 5.27311 44.2083 5.04395 44.3516C4.82194 44.4876 4.64648 44.6882 4.51758 44.9531C4.38867 45.2181 4.32422 45.5332 4.32422 45.8984H1.30566C1.30566 45.0391 1.49902 44.2907 1.88574 43.6533C2.27962 43.016 2.80957 42.5218 3.47559 42.1709C4.1416 41.8128 4.87923 41.6338 5.68848 41.6338C6.59798 41.6338 7.39648 41.8021 8.08398 42.1387C8.77148 42.4753 9.30859 42.9766 9.69531 43.6426C10.082 44.3014 10.2754 45.1178 10.2754 46.0918C10.2754 46.5931 10.1823 47.0765 9.99609 47.542C9.8099 48.0003 9.53776 48.4157 9.17969 48.7881C8.82161 49.1605 8.38477 49.4541 7.86914 49.6689C7.35352 49.8838 6.76986 49.9912 6.11816 49.9912H4.16309V48.2939ZM4.16309 50.7324V49.0889H6.11816C6.85579 49.0889 7.49674 49.1855 8.04102 49.3789C8.58529 49.5651 9.03646 49.8372 9.39453 50.1953C9.75977 50.5534 10.0319 50.9795 10.2109 51.4736C10.39 51.9606 10.4795 52.5049 10.4795 53.1064C10.4795 53.8369 10.3577 54.4886 10.1143 55.0615C9.87077 55.6344 9.5306 56.1178 9.09375 56.5117C8.6569 56.9056 8.14844 57.2064 7.56836 57.4141C6.98828 57.6146 6.35807 57.7148 5.67773 57.7148C5.11198 57.7148 4.55697 57.6253 4.0127 57.4463C3.47559 57.2673 2.99219 56.9915 2.5625 56.6191C2.13281 56.2467 1.79264 55.7777 1.54199 55.2119C1.29134 54.6462 1.16602 53.9766 1.16602 53.2031H4.17383C4.17383 53.5898 4.24186 53.9372 4.37793 54.2451C4.52116 54.5459 4.71094 54.7822 4.94727 54.9541C5.18359 55.126 5.45215 55.2119 5.75293 55.2119C6.10384 55.2119 6.4082 55.1224 6.66602 54.9434C6.92383 54.7643 7.12077 54.5137 7.25684 54.1914C7.3929 53.8691 7.46094 53.4967 7.46094 53.0742C7.46094 52.5156 7.38932 52.068 7.24609 51.7314C7.10286 51.3877 6.89518 51.137 6.62305 50.9795C6.35091 50.8148 6.02148 50.7324 5.63477 50.7324H4.16309Z" fill="white"/>
<path d="M57.8018 51.6133V54.1162H48.252L48.1123 52.1504L53.4297 41.8594H55.8145L53.376 46.4355L51.0557 51.6133H57.8018ZM56.4697 41.8594V57.5H53.4512V41.8594H56.4697Z" fill="white"/>
<path d="M18.5 53.5C18.5 52.3954 19.3954 51.5 20.5 51.5H38.5C39.6046 51.5 40.5 52.3954 40.5 53.5V67.5H18.5V53.5Z" fill="#61C9FF" fill-opacity="0.25"/>
<path d="M26.3418 56.4922L24.5078 63.5H22.6973L25.3633 54.9688H26.4941L26.3418 56.4922ZM27.7891 63.5L25.9434 56.4922L25.7734 54.9688H26.9219L29.6113 63.5H27.7891ZM27.8535 60.3184V61.7422H24.0039V60.3184H27.8535ZM32.0664 54.5V63.5H30.4199V54.5H32.0664ZM36.1328 57.1602V58.3965H32.8984V57.1602H36.1328ZM33.6426 55.5957H35.2773V61.5664C35.2773 61.7383 35.2949 61.873 35.3301 61.9707C35.3652 62.0645 35.418 62.1309 35.4883 62.1699C35.5625 62.2051 35.6582 62.2227 35.7754 62.2227C35.8613 62.2227 35.9395 62.2188 36.0098 62.2109C36.0801 62.1992 36.1328 62.1875 36.168 62.1758V63.459C36.0391 63.5098 35.9023 63.5488 35.7578 63.5762C35.6172 63.6035 35.4492 63.6172 35.2539 63.6172C34.9258 63.6172 34.6406 63.5566 34.3984 63.4355C34.1602 63.3105 33.9746 63.1094 33.8418 62.832C33.709 62.5547 33.6426 62.1914 33.6426 61.7422V55.5957Z" fill="white"/>
</svg>
