<svg width="92" height="26" viewBox="0 0 92 26" fill="none" xmlns="http://www.w3.org/2000/svg">
<path d="M8.50098 23.0693C9.15658 23.0693 9.75033 22.9395 10.2822 22.6797C10.8265 22.4076 11.2718 21.987 11.6182 21.418C11.9645 20.8366 12.1624 20.082 12.2119 19.1543H15.292C15.2425 20.4902 14.9023 21.6654 14.2715 22.6797C13.653 23.6816 12.8366 24.4671 11.8223 25.0361C10.8203 25.5928 9.71322 25.8711 8.50098 25.8711C7.20215 25.8711 6.07031 25.6608 5.10547 25.2402C4.15299 24.8197 3.36133 24.2135 2.73047 23.4219C2.11198 22.6178 1.64811 21.6468 1.33887 20.5088C1.02962 19.3584 0.875 18.0534 0.875 16.5938V14.3301C0.875 12.8704 1.02962 11.5716 1.33887 10.4336C1.64811 9.2832 2.11198 8.31217 2.73047 7.52051C3.36133 6.71647 4.15299 6.10417 5.10547 5.68359C6.07031 5.26302 7.20215 5.05273 8.50098 5.05273C9.86165 5.05273 11.0368 5.34342 12.0264 5.9248C13.0283 6.49382 13.8076 7.32259 14.3643 8.41113C14.9333 9.4873 15.2425 10.7923 15.292 12.3262H12.2119C12.1624 11.3366 11.9831 10.514 11.6738 9.8584C11.3646 9.19043 10.944 8.69564 10.4121 8.37402C9.88021 8.04004 9.24316 7.87305 8.50098 7.87305C7.63509 7.87305 6.91764 8.02767 6.34863 8.33691C5.79199 8.63379 5.35286 9.06673 5.03125 9.63574C4.70964 10.2048 4.48079 10.8851 4.34473 11.6768C4.22103 12.4684 4.15918 13.3529 4.15918 14.3301V16.5938C4.15918 17.571 4.22103 18.4616 4.34473 19.2656C4.48079 20.0573 4.70345 20.7376 5.0127 21.3066C5.33431 21.8757 5.77962 22.3148 6.34863 22.624C6.91764 22.9209 7.63509 23.0693 8.50098 23.0693ZM22.3799 8.57812V25.5H19.0957V5.42383H22.2686L22.3799 8.57812ZM27.3711 5.3125L27.3896 8.50391C27.1175 8.44206 26.8701 8.40495 26.6475 8.39258C26.4372 8.36784 26.1898 8.35547 25.9053 8.35547C25.2868 8.35547 24.7425 8.47917 24.2725 8.72656C23.8148 8.97396 23.4189 9.32031 23.085 9.76562C22.751 10.2109 22.485 10.7428 22.2871 11.3613C22.0892 11.9674 21.9531 12.6354 21.8789 13.3652L21.0254 13.9219C21.0254 12.7096 21.1182 11.5716 21.3037 10.5078C21.5016 9.44401 21.8047 8.50391 22.2129 7.6875C22.6211 6.85872 23.1406 6.21549 23.7715 5.75781C24.4147 5.28776 25.1816 5.05273 26.0723 5.05273C26.2702 5.05273 26.5114 5.08366 26.7959 5.14551C27.0928 5.19499 27.2845 5.25065 27.3711 5.3125ZM37.4834 25.8711C36.2835 25.8711 35.2012 25.6917 34.2363 25.333C33.2715 24.9743 32.4489 24.43 31.7686 23.7002C31.0882 22.958 30.5687 22.0241 30.21 20.8984C29.8512 19.7728 29.6719 18.443 29.6719 16.9092V14.6455C29.6719 12.8766 29.876 11.3799 30.2842 10.1553C30.7048 8.93066 31.2676 7.94727 31.9727 7.20508C32.6777 6.45052 33.4756 5.90625 34.3662 5.57227C35.2568 5.22591 36.1722 5.05273 37.1123 5.05273C38.374 5.05273 39.4502 5.25684 40.3408 5.66504C41.2314 6.07324 41.9551 6.67936 42.5117 7.4834C43.0684 8.28743 43.4766 9.27702 43.7363 10.4521C44.0085 11.6273 44.1445 12.9818 44.1445 14.5156V16.4268H31.6016V13.625H40.8604V13.1611C40.8109 12.1221 40.6686 11.2067 40.4336 10.415C40.2109 9.62337 39.8398 9.00488 39.3203 8.55957C38.8008 8.10189 38.0648 7.87305 37.1123 7.87305C36.5062 7.87305 35.9434 7.97819 35.4238 8.18848C34.9167 8.38639 34.4775 8.73893 34.1064 9.24609C33.7477 9.74089 33.4632 10.4274 33.2529 11.3057C33.055 12.1839 32.9561 13.2972 32.9561 14.6455V16.9092C32.9561 17.9854 33.055 18.9131 33.2529 19.6924C33.4632 20.4593 33.7663 21.0964 34.1621 21.6035C34.5703 22.0983 35.0651 22.4694 35.6465 22.7168C36.2402 22.9518 36.9144 23.0693 37.6689 23.0693C38.7699 23.0693 39.679 22.859 40.3965 22.4385C41.1139 22.0055 41.7386 21.4551 42.2705 20.7871L43.9961 22.8467C43.6374 23.3538 43.1673 23.8424 42.5859 24.3125C42.0169 24.7702 41.3118 25.1475 40.4707 25.4443C39.6419 25.7288 38.6462 25.8711 37.4834 25.8711ZM57.9492 22.0674V11.1758C57.9492 10.3841 57.8255 9.74707 57.5781 9.26465C57.3431 8.78223 56.9844 8.42969 56.502 8.20703C56.0319 7.98438 55.4382 7.87305 54.7207 7.87305C54.028 7.87305 53.4281 8.0153 52.9209 8.2998C52.4261 8.58431 52.0426 8.96159 51.7705 9.43164C51.5107 9.90169 51.3809 10.4212 51.3809 10.9902H48.0967C48.0967 10.2728 48.2513 9.56152 48.5605 8.85645C48.8822 8.15137 49.3398 7.51432 49.9336 6.94531C50.5273 6.36393 51.2386 5.90625 52.0674 5.57227C52.9085 5.22591 53.8486 5.05273 54.8877 5.05273C56.1247 5.05273 57.2194 5.25684 58.1719 5.66504C59.1243 6.06087 59.8727 6.71029 60.417 7.61328C60.9613 8.51628 61.2334 9.71615 61.2334 11.2129V21.1211C61.2334 21.7891 61.2829 22.5003 61.3818 23.2549C61.4932 24.0094 61.6478 24.6589 61.8457 25.2031V25.5H58.4502C58.2894 25.1042 58.1657 24.5785 58.0791 23.9229C57.9925 23.2549 57.9492 22.6364 57.9492 22.0674ZM58.4688 13.3281L58.5059 15.7402H56.2236C55.4443 15.7402 54.7331 15.8268 54.0898 16C53.459 16.1732 52.9147 16.4268 52.457 16.7607C51.9993 17.0824 51.6468 17.4844 51.3994 17.9668C51.1644 18.4492 51.0469 18.9997 51.0469 19.6182C51.0469 20.4222 51.1582 21.0654 51.3809 21.5479C51.6035 22.0179 51.9375 22.3581 52.3828 22.5684C52.8281 22.7786 53.391 22.8838 54.0713 22.8838C54.9001 22.8838 55.6299 22.6921 56.2607 22.3086C56.8916 21.9251 57.3802 21.4613 57.7266 20.917C58.0853 20.3727 58.2523 19.8656 58.2275 19.3955L58.9512 20.9355C58.9017 21.418 58.7409 21.9437 58.4688 22.5127C58.209 23.0693 57.8441 23.6074 57.374 24.127C56.904 24.6341 56.3473 25.0547 55.7041 25.3887C55.0732 25.7103 54.362 25.8711 53.5703 25.8711C52.4076 25.8711 51.387 25.6484 50.5088 25.2031C49.6429 24.7578 48.9688 24.1022 48.4863 23.2363C48.0039 22.3704 47.7627 21.3005 47.7627 20.0264C47.7627 19.0615 47.9297 18.1709 48.2637 17.3545C48.5977 16.5381 49.0924 15.833 49.748 15.2393C50.4036 14.6331 51.2262 14.1631 52.2158 13.8291C53.2178 13.4951 54.3743 13.3281 55.6855 13.3281H58.4688ZM73.665 5.42383V8.05859H64.2949V5.42383H73.665ZM67.3564 0.543945H70.6406V20.5273C70.6406 21.2077 70.721 21.721 70.8818 22.0674C71.055 22.4137 71.2715 22.6426 71.5312 22.7539C71.791 22.8652 72.0693 22.9209 72.3662 22.9209C72.5889 22.9209 72.8363 22.8962 73.1084 22.8467C73.3805 22.7848 73.5661 22.7354 73.665 22.6982L73.6465 25.5C73.4238 25.5866 73.127 25.667 72.7559 25.7412C72.3848 25.8278 71.9147 25.8711 71.3457 25.8711C70.6406 25.8711 69.985 25.7041 69.3789 25.3701C68.7728 25.0361 68.2842 24.4795 67.9131 23.7002C67.542 22.9085 67.3564 21.8447 67.3564 20.5088V0.543945ZM84.7607 25.8711C83.5609 25.8711 82.4785 25.6917 81.5137 25.333C80.5488 24.9743 79.7262 24.43 79.0459 23.7002C78.3656 22.958 77.846 22.0241 77.4873 20.8984C77.1286 19.7728 76.9492 18.443 76.9492 16.9092V14.6455C76.9492 12.8766 77.1533 11.3799 77.5615 10.1553C77.9821 8.93066 78.5449 7.94727 79.25 7.20508C79.9551 6.45052 80.7529 5.90625 81.6436 5.57227C82.5342 5.22591 83.4495 5.05273 84.3896 5.05273C85.6514 5.05273 86.7275 5.25684 87.6182 5.66504C88.5088 6.07324 89.2324 6.67936 89.7891 7.4834C90.3457 8.28743 90.7539 9.27702 91.0137 10.4521C91.2858 11.6273 91.4219 12.9818 91.4219 14.5156V16.4268H78.8789V13.625H88.1377V13.1611C88.0882 12.1221 87.946 11.2067 87.7109 10.415C87.4883 9.62337 87.1172 9.00488 86.5977 8.55957C86.0781 8.10189 85.3421 7.87305 84.3896 7.87305C83.7835 7.87305 83.2207 7.97819 82.7012 8.18848C82.194 8.38639 81.7549 8.73893 81.3838 9.24609C81.0251 9.74089 80.7406 10.4274 80.5303 11.3057C80.3324 12.1839 80.2334 13.2972 80.2334 14.6455V16.9092C80.2334 17.9854 80.3324 18.9131 80.5303 19.6924C80.7406 20.4593 81.0436 21.0964 81.4395 21.6035C81.8477 22.0983 82.3424 22.4694 82.9238 22.7168C83.5176 22.9518 84.1917 23.0693 84.9463 23.0693C86.0472 23.0693 86.9564 22.859 87.6738 22.4385C88.3913 22.0055 89.016 21.4551 89.5479 20.7871L91.2734 22.8467C90.9147 23.3538 90.4447 23.8424 89.8633 24.3125C89.2943 24.7702 88.5892 25.1475 87.748 25.4443C86.9193 25.7288 85.9235 25.8711 84.7607 25.8711Z" fill="white"/>
</svg>
