<svg width="43" height="53" viewBox="0 0 43 53" fill="none" xmlns="http://www.w3.org/2000/svg">
<mask id="path-1-inside-1_37_83" fill="white">
<path d="M0.5 0.5H42.5V52.5H0.5V0.5Z"/>
</mask>
<path d="M0.5 0.5V1.5H42.5V0.5V-0.5H0.5V0.5ZM42.5 52.5V51.5H0.5V52.5V53.5H42.5V52.5Z" fill="white" mask="url(#path-1-inside-1_37_83)"/>
<path d="M17.6572 28.9648L13.0635 27.8164L14.5605 12.6406H28.9775V17.5625H19.2773L18.7236 23.9814C19.0381 23.7627 19.5029 23.5234 20.1182 23.2637C20.7471 23.0039 21.4443 22.874 22.21 22.874C23.4541 22.874 24.5479 23.0996 25.4912 23.5508C26.4482 24.002 27.2549 24.6582 27.9111 25.5195C28.5674 26.3809 29.0664 27.4336 29.4082 28.6777C29.75 29.9219 29.9209 31.3301 29.9209 32.9023C29.9209 34.2285 29.7432 35.4932 29.3877 36.6963C29.0322 37.8994 28.4854 38.9658 27.7471 39.8955C27.0088 40.8252 26.0928 41.5635 24.999 42.1104C23.9189 42.6436 22.6406 42.9102 21.1641 42.9102C20.0566 42.9102 18.9902 42.7188 17.9648 42.3359C16.9395 41.9531 16.0166 41.3857 15.1963 40.6338C14.376 39.8682 13.7197 38.9521 13.2275 37.8857C12.7354 36.8057 12.4893 35.5752 12.4893 34.1943H18.1699C18.2383 35.001 18.3955 35.6982 18.6416 36.2861C18.9014 36.874 19.2432 37.332 19.667 37.6602C20.0908 37.9746 20.583 38.1318 21.1436 38.1318C21.7041 38.1318 22.1758 37.9951 22.5586 37.7217C22.9551 37.4346 23.2695 37.0381 23.502 36.5322C23.7344 36.0264 23.8984 35.4385 23.9941 34.7686C24.1035 34.085 24.1582 33.3535 24.1582 32.5742C24.1582 31.7812 24.0898 31.0635 23.9531 30.4209C23.8164 29.7783 23.6045 29.2246 23.3174 28.7598C23.0303 28.2949 22.6543 27.9395 22.1895 27.6934C21.7383 27.4473 21.2119 27.3242 20.6104 27.3242C19.7627 27.3242 19.127 27.502 18.7031 27.8574C18.293 28.1992 17.9443 28.5684 17.6572 28.9648Z" fill="white"/>
</svg>
