<svg width="96" height="36" viewBox="0 0 96 36" fill="none" xmlns="http://www.w3.org/2000/svg">
<path d="M4.04492 7.42383V27.5H0.779297V7.42383H4.04492ZM0.59375 2.09863C0.59375 1.54199 0.748372 1.07194 1.05762 0.688477C1.36686 0.305013 1.83073 0.113281 2.44922 0.113281C3.06771 0.113281 3.53158 0.305013 3.84082 0.688477C4.16243 1.07194 4.32324 1.54199 4.32324 2.09863C4.32324 2.63053 4.16243 3.08822 3.84082 3.47168C3.53158 3.84277 3.06771 4.02832 2.44922 4.02832C1.83073 4.02832 1.36686 3.84277 1.05762 3.47168C0.748372 3.08822 0.59375 2.63053 0.59375 2.09863ZM12.5244 11.4131V27.5H9.25879V7.42383H12.3389L12.5244 11.4131ZM11.8564 16.7012L10.335 16.6455C10.3226 15.2725 10.4587 14.0046 10.7432 12.8418C11.0277 11.6667 11.4544 10.6462 12.0234 9.78027C12.6048 8.91439 13.3285 8.24642 14.1943 7.77637C15.0726 7.29395 16.0931 7.05273 17.2559 7.05273C18.0228 7.05273 18.734 7.1888 19.3896 7.46094C20.0576 7.7207 20.639 8.13509 21.1338 8.7041C21.6286 9.27311 22.012 10.0029 22.2842 10.8936C22.5687 11.7842 22.7109 12.8604 22.7109 14.1221V27.5H19.4268V14.2891C19.4268 13.2376 19.2845 12.3965 19 11.7656C18.7279 11.1348 18.3382 10.6771 17.8311 10.3926C17.3239 10.0957 16.7178 9.94727 16.0127 9.94727C15.2087 9.94727 14.5345 10.1266 13.9902 10.4854C13.4583 10.8441 13.0316 11.3389 12.71 11.9697C12.4007 12.6006 12.1781 13.3242 12.042 14.1406C11.9183 14.9447 11.8564 15.7982 11.8564 16.7012ZM22.6738 14.8086L20.4844 15.5137C20.472 14.4128 20.6081 13.3551 20.8926 12.3408C21.1771 11.3265 21.5977 10.4235 22.1543 9.63184C22.7233 8.84017 23.4284 8.21549 24.2695 7.75781C25.1107 7.28776 26.0879 7.05273 27.2012 7.05273C28.1165 7.05273 28.9268 7.19499 29.6318 7.47949C30.3369 7.764 30.9307 8.20312 31.4131 8.79688C31.9079 9.37826 32.279 10.1266 32.5264 11.042C32.7738 11.9574 32.8975 13.0459 32.8975 14.3076V27.5H29.6133V14.2705C29.6133 13.1449 29.471 12.2728 29.1865 11.6543C28.9144 11.0234 28.5247 10.5843 28.0176 10.3369C27.5104 10.0771 26.9043 9.94727 26.1992 9.94727C25.6302 9.94727 25.123 10.0771 24.6777 10.3369C24.2448 10.5967 23.8799 10.9554 23.583 11.4131C23.2861 11.8584 23.0573 12.3717 22.8965 12.9531C22.748 13.5345 22.6738 14.153 22.6738 14.8086ZM41.1357 11.2832V35.2188H37.8516V7.42383H40.8389L41.1357 11.2832ZM52.3613 16.5527V18.4268C52.3613 20.0101 52.2129 21.3955 51.916 22.583C51.6315 23.7581 51.2048 24.7415 50.6357 25.5332C50.0791 26.3125 49.3926 26.9001 48.5762 27.2959C47.7598 27.6794 46.8258 27.8711 45.7744 27.8711C44.723 27.8711 43.8076 27.6732 43.0283 27.2773C42.2614 26.8691 41.612 26.2816 41.0801 25.5146C40.5605 24.7477 40.1462 23.8262 39.8369 22.75C39.54 21.6615 39.3359 20.443 39.2246 19.0947V16.2373C39.3359 14.8148 39.54 13.5407 39.8369 12.415C40.1338 11.277 40.542 10.3122 41.0615 9.52051C41.5934 8.71647 42.2428 8.10417 43.0098 7.68359C43.7891 7.26302 44.6982 7.05273 45.7373 7.05273C46.8135 7.05273 47.7598 7.23828 48.5762 7.60938C49.4049 7.98047 50.0977 8.55566 50.6543 9.33496C51.2233 10.1019 51.6501 11.0853 51.9346 12.2852C52.2191 13.4727 52.3613 14.8952 52.3613 16.5527ZM49.0771 18.4268V16.5527C49.0771 15.4395 48.9906 14.4684 48.8174 13.6396C48.6566 12.8109 48.3968 12.1243 48.0381 11.5801C47.6794 11.0358 47.2279 10.6276 46.6836 10.3555C46.1393 10.0833 45.4837 9.94727 44.7168 9.94727C44.0612 9.94727 43.4798 10.0833 42.9727 10.3555C42.4779 10.6276 42.0511 10.9987 41.6924 11.4688C41.3337 11.9264 41.0368 12.4521 40.8018 13.0459C40.5667 13.6273 40.3936 14.2334 40.2822 14.8643V20.4863C40.4925 21.278 40.7708 22.0264 41.1172 22.7314C41.4635 23.4242 41.9274 23.987 42.5088 24.4199C43.1025 24.8529 43.8509 25.0693 44.7539 25.0693C45.5085 25.0693 46.1579 24.9333 46.7021 24.6611C47.2464 24.389 47.6917 23.9808 48.0381 23.4365C48.3968 22.8799 48.6566 22.1872 48.8174 21.3584C48.9906 20.5173 49.0771 19.54 49.0771 18.4268ZM55.9053 18.4268V16.5156C55.9053 14.957 56.1032 13.5902 56.499 12.415C56.8949 11.2275 57.4453 10.238 58.1504 9.44629C58.8555 8.65462 59.6781 8.06087 60.6182 7.66504C61.5583 7.25684 62.5664 7.05273 63.6426 7.05273C64.7435 7.05273 65.764 7.25684 66.7041 7.66504C67.6442 8.06087 68.4668 8.65462 69.1719 9.44629C69.8893 10.238 70.446 11.2275 70.8418 12.415C71.2376 13.5902 71.4355 14.957 71.4355 16.5156V18.4268C71.4355 19.9854 71.2376 21.3584 70.8418 22.5459C70.446 23.721 69.8955 24.7044 69.1904 25.4961C68.4854 26.2878 67.6628 26.8815 66.7227 27.2773C65.7826 27.6732 64.7682 27.8711 63.6797 27.8711C62.5911 27.8711 61.5768 27.6732 60.6367 27.2773C59.6966 26.8815 58.8678 26.2878 58.1504 25.4961C57.4453 24.7044 56.8949 23.721 56.499 22.5459C56.1032 21.3584 55.9053 19.9854 55.9053 18.4268ZM59.1895 16.5156V18.4268C59.1895 19.5277 59.3008 20.4925 59.5234 21.3213C59.7461 22.1501 60.0615 22.8428 60.4697 23.3994C60.8779 23.9561 61.3542 24.3766 61.8984 24.6611C62.4427 24.9333 63.0365 25.0693 63.6797 25.0693C64.4219 25.0693 65.0713 24.9333 65.6279 24.6611C66.1969 24.3766 66.667 23.9561 67.0381 23.3994C67.4092 22.8428 67.6875 22.1501 67.873 21.3213C68.0586 20.4925 68.1514 19.5277 68.1514 18.4268V16.5156C68.1514 15.4147 68.04 14.4561 67.8174 13.6396C67.5947 12.8109 67.2793 12.1182 66.8711 11.5615C66.4629 10.9925 65.9805 10.5719 65.4238 10.2998C64.8796 10.0153 64.2858 9.87305 63.6426 9.87305C63.0117 9.87305 62.4242 10.0153 61.8799 10.2998C61.3356 10.5719 60.8594 10.9925 60.4512 11.5615C60.0553 12.1182 59.7461 12.8109 59.5234 13.6396C59.3008 14.4561 59.1895 15.4147 59.1895 16.5156ZM78.9502 10.5781V27.5H75.666V7.42383H78.8389L78.9502 10.5781ZM83.9414 7.3125L83.96 10.5039C83.6878 10.4421 83.4404 10.4049 83.2178 10.3926C83.0075 10.3678 82.7601 10.3555 82.4756 10.3555C81.8571 10.3555 81.3128 10.4792 80.8428 10.7266C80.3851 10.974 79.9893 11.3203 79.6553 11.7656C79.3213 12.2109 79.0553 12.7428 78.8574 13.3613C78.6595 13.9674 78.5234 14.6354 78.4492 15.3652L77.5957 15.9219C77.5957 14.7096 77.6885 13.5716 77.874 12.5078C78.0719 11.444 78.375 10.5039 78.7832 9.6875C79.1914 8.85872 79.7109 8.21549 80.3418 7.75781C80.985 7.28776 81.752 7.05273 82.6426 7.05273C82.8405 7.05273 83.0817 7.08366 83.3662 7.14551C83.6631 7.19499 83.8548 7.25065 83.9414 7.3125ZM95.501 7.42383V10.0586H86.1309V7.42383H95.501ZM89.1924 2.54395H92.4766V22.5273C92.4766 23.2077 92.557 23.721 92.7178 24.0674C92.891 24.4137 93.1074 24.6426 93.3672 24.7539C93.627 24.8652 93.9053 24.9209 94.2021 24.9209C94.4248 24.9209 94.6722 24.8962 94.9443 24.8467C95.2165 24.7848 95.402 24.7354 95.501 24.6982L95.4824 27.5C95.2598 27.5866 94.9629 27.667 94.5918 27.7412C94.2207 27.8278 93.7507 27.8711 93.1816 27.8711C92.4766 27.8711 91.821 27.7041 91.2148 27.3701C90.6087 27.0361 90.1201 26.4795 89.749 25.7002C89.3779 24.9085 89.1924 23.8447 89.1924 22.5088V2.54395Z" fill="white"/>
</svg>
