<svg width="53" height="27" viewBox="0 0 53 27" fill="none" xmlns="http://www.w3.org/2000/svg">
<path d="M8.6377 5.82715V21.5H5.61914V9.52246L2.63281 10.6719V8.1582L8.30469 5.82715H8.6377Z" fill="white"/>
<path d="M31.1729 18.9971V21.5H21.9561V19.3623L26.1885 13.9805C26.5967 13.4219 26.9154 12.9277 27.1445 12.498C27.3737 12.0684 27.5384 11.6852 27.6387 11.3486C27.7389 11.0049 27.7891 10.679 27.7891 10.3711C27.7891 9.91276 27.7354 9.51888 27.6279 9.18945C27.5205 8.85286 27.3594 8.59505 27.1445 8.41602C26.9368 8.22982 26.679 8.13672 26.3711 8.13672C25.9987 8.13672 25.6908 8.2513 25.4473 8.48047C25.2038 8.70964 25.0212 9.02474 24.8994 9.42578C24.7848 9.81966 24.7275 10.2673 24.7275 10.7686H21.709C21.709 9.83757 21.8988 8.98177 22.2783 8.20117C22.665 7.41341 23.2057 6.79036 23.9004 6.33203C24.6022 5.86654 25.4437 5.63379 26.4248 5.63379C27.3773 5.63379 28.1794 5.81283 28.8311 6.1709C29.4827 6.52897 29.9733 7.04102 30.3027 7.70703C30.6393 8.36589 30.8076 9.15723 30.8076 10.0811C30.8076 10.5967 30.7396 11.1016 30.6035 11.5957C30.4674 12.0827 30.2741 12.5697 30.0234 13.0566C29.7728 13.5365 29.4613 14.027 29.0889 14.5283C28.7236 15.0296 28.3154 15.5488 27.8643 16.0859L25.8232 18.9971H31.1729Z" fill="white"/>
<path d="M44.6631 12.2939H46.1348C46.5072 12.2939 46.8151 12.208 47.0586 12.0361C47.3021 11.8571 47.4811 11.6064 47.5957 11.2842C47.7103 10.9548 47.7676 10.5716 47.7676 10.1348C47.7676 9.74805 47.7139 9.40788 47.6064 9.11426C47.499 8.81348 47.3343 8.57715 47.1123 8.40527C46.8903 8.22624 46.611 8.13672 46.2744 8.13672C46.0166 8.13672 45.7731 8.20833 45.5439 8.35156C45.3219 8.48763 45.1465 8.68815 45.0176 8.95312C44.8887 9.2181 44.8242 9.5332 44.8242 9.89844H41.8057C41.8057 9.03906 41.999 8.29069 42.3857 7.65332C42.7796 7.01595 43.3096 6.52181 43.9756 6.1709C44.6416 5.81283 45.3792 5.63379 46.1885 5.63379C47.098 5.63379 47.8965 5.80208 48.584 6.13867C49.2715 6.47526 49.8086 6.97656 50.1953 7.64258C50.582 8.30143 50.7754 9.11784 50.7754 10.0918C50.7754 10.5931 50.6823 11.0765 50.4961 11.542C50.3099 12.0003 50.0378 12.4157 49.6797 12.7881C49.3216 13.1605 48.8848 13.4541 48.3691 13.6689C47.8535 13.8838 47.2699 13.9912 46.6182 13.9912H44.6631V12.2939ZM44.6631 14.7324V13.0889H46.6182C47.3558 13.0889 47.9967 13.1855 48.541 13.3789C49.0853 13.5651 49.5365 13.8372 49.8945 14.1953C50.2598 14.5534 50.5319 14.9795 50.7109 15.4736C50.89 15.9606 50.9795 16.5049 50.9795 17.1064C50.9795 17.8369 50.8577 18.4886 50.6143 19.0615C50.3708 19.6344 50.0306 20.1178 49.5938 20.5117C49.1569 20.9056 48.6484 21.2064 48.0684 21.4141C47.4883 21.6146 46.8581 21.7148 46.1777 21.7148C45.612 21.7148 45.057 21.6253 44.5127 21.4463C43.9756 21.2673 43.4922 20.9915 43.0625 20.6191C42.6328 20.2467 42.2926 19.7777 42.042 19.2119C41.7913 18.6462 41.666 17.9766 41.666 17.2031H44.6738C44.6738 17.5898 44.7419 17.9372 44.8779 18.2451C45.0212 18.5459 45.2109 18.7822 45.4473 18.9541C45.6836 19.126 45.9521 19.2119 46.2529 19.2119C46.6038 19.2119 46.9082 19.1224 47.166 18.9434C47.4238 18.7643 47.6208 18.5137 47.7568 18.1914C47.8929 17.8691 47.9609 17.4967 47.9609 17.0742C47.9609 16.5156 47.8893 16.068 47.7461 15.7314C47.6029 15.3877 47.3952 15.137 47.123 14.9795C46.8509 14.8148 46.5215 14.7324 46.1348 14.7324H44.6631Z" fill="white"/>
</svg>
