<svg width="53" height="50" viewBox="0 0 53 50" fill="none" xmlns="http://www.w3.org/2000/svg">
<path d="M8.6377 5.82715V21.5H5.61914V9.52246L2.63281 10.6719V8.1582L8.30469 5.82715H8.6377Z" fill="white"/>
<path d="M31.1729 18.9971V21.5H21.9561V19.3623L26.1885 13.9805C26.5967 13.4219 26.9154 12.9277 27.1445 12.498C27.3737 12.0684 27.5384 11.6852 27.6387 11.3486C27.7389 11.0049 27.7891 10.679 27.7891 10.3711C27.7891 9.91276 27.7354 9.51888 27.6279 9.18945C27.5205 8.85286 27.3594 8.59505 27.1445 8.41602C26.9368 8.22982 26.679 8.13672 26.3711 8.13672C25.9987 8.13672 25.6908 8.2513 25.4473 8.48047C25.2038 8.70964 25.0212 9.02474 24.8994 9.42578C24.7848 9.81966 24.7275 10.2673 24.7275 10.7686H21.709C21.709 9.83757 21.8988 8.98177 22.2783 8.20117C22.665 7.41341 23.2057 6.79036 23.9004 6.33203C24.6022 5.86654 25.4437 5.63379 26.4248 5.63379C27.3773 5.63379 28.1794 5.81283 28.8311 6.1709C29.4827 6.52897 29.9733 7.04102 30.3027 7.70703C30.6393 8.36589 30.8076 9.15723 30.8076 10.0811C30.8076 10.5967 30.7396 11.1016 30.6035 11.5957C30.4674 12.0827 30.2741 12.5697 30.0234 13.0566C29.7728 13.5365 29.4613 14.027 29.0889 14.5283C28.7236 15.0296 28.3154 15.5488 27.8643 16.0859L25.8232 18.9971H31.1729Z" fill="white"/>
<path d="M44.6631 12.2939H46.1348C46.5072 12.2939 46.8151 12.208 47.0586 12.0361C47.3021 11.8571 47.4811 11.6064 47.5957 11.2842C47.7103 10.9548 47.7676 10.5716 47.7676 10.1348C47.7676 9.74805 47.7139 9.40788 47.6064 9.11426C47.499 8.81348 47.3343 8.57715 47.1123 8.40527C46.8903 8.22624 46.611 8.13672 46.2744 8.13672C46.0166 8.13672 45.7731 8.20833 45.5439 8.35156C45.3219 8.48763 45.1465 8.68815 45.0176 8.95312C44.8887 9.2181 44.8242 9.5332 44.8242 9.89844H41.8057C41.8057 9.03906 41.999 8.29069 42.3857 7.65332C42.7796 7.01595 43.3096 6.52181 43.9756 6.1709C44.6416 5.81283 45.3792 5.63379 46.1885 5.63379C47.098 5.63379 47.8965 5.80208 48.584 6.13867C49.2715 6.47526 49.8086 6.97656 50.1953 7.64258C50.582 8.30143 50.7754 9.11784 50.7754 10.0918C50.7754 10.5931 50.6823 11.0765 50.4961 11.542C50.3099 12.0003 50.0378 12.4157 49.6797 12.7881C49.3216 13.1605 48.8848 13.4541 48.3691 13.6689C47.8535 13.8838 47.2699 13.9912 46.6182 13.9912H44.6631V12.2939ZM44.6631 14.7324V13.0889H46.6182C47.3558 13.0889 47.9967 13.1855 48.541 13.3789C49.0853 13.5651 49.5365 13.8372 49.8945 14.1953C50.2598 14.5534 50.5319 14.9795 50.7109 15.4736C50.89 15.9606 50.9795 16.5049 50.9795 17.1064C50.9795 17.8369 50.8577 18.4886 50.6143 19.0615C50.3708 19.6344 50.0306 20.1178 49.5938 20.5117C49.1569 20.9056 48.6484 21.2064 48.0684 21.4141C47.4883 21.6146 46.8581 21.7148 46.1777 21.7148C45.612 21.7148 45.057 21.6253 44.5127 21.4463C43.9756 21.2673 43.4922 20.9915 43.0625 20.6191C42.6328 20.2467 42.2926 19.7777 42.042 19.2119C41.7913 18.6462 41.666 17.9766 41.666 17.2031H44.6738C44.6738 17.5898 44.7419 17.9372 44.8779 18.2451C45.0212 18.5459 45.2109 18.7822 45.4473 18.9541C45.6836 19.126 45.9521 19.2119 46.2529 19.2119C46.6038 19.2119 46.9082 19.1224 47.166 18.9434C47.4238 18.7643 47.6208 18.5137 47.7568 18.1914C47.8929 17.8691 47.9609 17.4967 47.9609 17.0742C47.9609 16.5156 47.8893 16.068 47.7461 15.7314C47.6029 15.3877 47.3952 15.137 47.123 14.9795C46.8509 14.8148 46.5215 14.7324 46.1348 14.7324H44.6631Z" fill="white"/>
<path d="M15.5 35.5C15.5 34.3954 16.3954 33.5 17.5 33.5H35.5C36.6046 33.5 37.5 34.3954 37.5 35.5V49.5H15.5V35.5Z" fill="#61C9FF" fill-opacity="0.25"/>
<path d="M24.4844 42.6582H26.1895C26.166 43.2988 26.0371 43.8398 25.8027 44.2812C25.5684 44.7188 25.2344 45.0508 24.8008 45.2773C24.3711 45.5039 23.8516 45.6172 23.2422 45.6172C22.7695 45.6172 22.3496 45.5391 21.9824 45.3828C21.6152 45.2227 21.3027 44.9883 21.0449 44.6797C20.7871 44.3711 20.5918 43.9902 20.459 43.5371C20.3301 43.0801 20.2656 42.5547 20.2656 41.9609V40.5137C20.2656 39.9199 20.334 39.3945 20.4707 38.9375C20.6113 38.4805 20.8105 38.0977 21.0684 37.7891C21.3301 37.4766 21.6445 37.2422 22.0117 37.0859C22.3828 36.9258 22.8008 36.8457 23.2656 36.8457C23.8867 36.8457 24.4062 36.9629 24.8242 37.1973C25.2422 37.4316 25.5645 37.7734 25.791 38.2227C26.0215 38.668 26.1602 39.2129 26.207 39.8574H24.4902C24.4824 39.4512 24.4375 39.1328 24.3555 38.9023C24.2773 38.668 24.1523 38.5039 23.9805 38.4102C23.8086 38.3125 23.5703 38.2637 23.2656 38.2637C23.0391 38.2637 22.8438 38.3047 22.6797 38.3867C22.5156 38.4648 22.3809 38.5918 22.2754 38.7676C22.1699 38.9434 22.0918 39.1738 22.041 39.459C21.9941 39.7441 21.9707 40.0918 21.9707 40.502V41.9609C21.9707 42.3633 21.9922 42.707 22.0352 42.9922C22.0781 43.2734 22.1465 43.5039 22.2402 43.6836C22.334 43.8633 22.4609 43.9941 22.6211 44.0762C22.7852 44.1582 22.9922 44.1992 23.2422 44.1992C23.5312 44.1992 23.7637 44.1562 23.9395 44.0703C24.1191 43.9844 24.252 43.8301 24.3379 43.6074C24.4238 43.3848 24.4727 43.0684 24.4844 42.6582ZM29.9453 39.1602V40.3965H26.7109V39.1602H29.9453ZM27.4551 37.5957H29.0898V43.5664C29.0898 43.7383 29.1074 43.873 29.1426 43.9707C29.1777 44.0645 29.2305 44.1309 29.3008 44.1699C29.375 44.2051 29.4707 44.2227 29.5879 44.2227C29.6738 44.2227 29.752 44.2188 29.8223 44.2109C29.8926 44.1992 29.9453 44.1875 29.9805 44.1758V45.459C29.8516 45.5098 29.7148 45.5488 29.5703 45.5762C29.4297 45.6035 29.2617 45.6172 29.0664 45.6172C28.7383 45.6172 28.4531 45.5566 28.2109 45.4355C27.9727 45.3105 27.7871 45.1094 27.6543 44.832C27.5215 44.5547 27.4551 44.1914 27.4551 43.7422V37.5957ZM32.582 36.5V45.5H30.9355V36.5H32.582Z" fill="white"/>
</svg>
