<svg width="59" height="37" viewBox="0 0 59 37" fill="none" xmlns="http://www.w3.org/2000/svg">
<path d="M4.13672 12.2832V36.2188H0.852539V8.42383H3.83984L4.13672 12.2832ZM15.3623 17.5527V19.4268C15.3623 21.0101 15.2139 22.3955 14.917 23.583C14.6325 24.7581 14.2057 25.7415 13.6367 26.5332C13.0801 27.3125 12.3936 27.9001 11.5771 28.2959C10.7607 28.6794 9.82682 28.8711 8.77539 28.8711C7.72396 28.8711 6.80859 28.6732 6.0293 28.2773C5.26237 27.8691 4.61296 27.2816 4.08105 26.5146C3.56152 25.7477 3.14714 24.8262 2.83789 23.75C2.54102 22.6615 2.33691 21.443 2.22559 20.0947V17.2373C2.33691 15.8148 2.54102 14.5407 2.83789 13.415C3.13477 12.277 3.54297 11.3122 4.0625 10.5205C4.5944 9.71647 5.24382 9.10417 6.01074 8.68359C6.79004 8.26302 7.69922 8.05273 8.73828 8.05273C9.81445 8.05273 10.7607 8.23828 11.5771 8.60938C12.4059 8.98047 13.0986 9.55566 13.6553 10.335C14.2243 11.1019 14.651 12.0853 14.9355 13.2852C15.2201 14.4727 15.3623 15.8952 15.3623 17.5527ZM12.0781 19.4268V17.5527C12.0781 16.4395 11.9915 15.4684 11.8184 14.6396C11.6576 13.8109 11.3978 13.1243 11.0391 12.5801C10.6803 12.0358 10.2288 11.6276 9.68457 11.3555C9.1403 11.0833 8.4847 10.9473 7.71777 10.9473C7.06217 10.9473 6.48079 11.0833 5.97363 11.3555C5.47884 11.6276 5.05208 11.9987 4.69336 12.4688C4.33464 12.9264 4.03776 13.4521 3.80273 14.0459C3.56771 14.6273 3.39453 15.2334 3.2832 15.8643V21.4863C3.49349 22.278 3.77181 23.0264 4.11816 23.7314C4.46452 24.4242 4.92839 24.987 5.50977 25.4199C6.10352 25.8529 6.85189 26.0693 7.75488 26.0693C8.50944 26.0693 9.15885 25.9333 9.70312 25.6611C10.2474 25.389 10.6927 24.9808 11.0391 24.4365C11.3978 23.8799 11.6576 23.1872 11.8184 22.3584C11.9915 21.5173 12.0781 20.54 12.0781 19.4268ZM23.1182 0V28.5H19.8525V0H23.1182ZM38.1475 25.0674V14.1758C38.1475 13.3841 38.0238 12.7471 37.7764 12.2646C37.5413 11.7822 37.1826 11.4297 36.7002 11.207C36.2301 10.9844 35.6364 10.873 34.9189 10.873C34.2262 10.873 33.6263 11.0153 33.1191 11.2998C32.6243 11.5843 32.2409 11.9616 31.9688 12.4316C31.709 12.9017 31.5791 13.4212 31.5791 13.9902H28.2949C28.2949 13.2728 28.4495 12.5615 28.7588 11.8564C29.0804 11.1514 29.5381 10.5143 30.1318 9.94531C30.7256 9.36393 31.4368 8.90625 32.2656 8.57227C33.1068 8.22591 34.0469 8.05273 35.0859 8.05273C36.3229 8.05273 37.4176 8.25684 38.3701 8.66504C39.3226 9.06087 40.071 9.71029 40.6152 10.6133C41.1595 11.5163 41.4316 12.7161 41.4316 14.2129V24.1211C41.4316 24.7891 41.4811 25.5003 41.5801 26.2549C41.6914 27.0094 41.846 27.6589 42.0439 28.2031V28.5H38.6484C38.4876 28.1042 38.3639 27.5785 38.2773 26.9229C38.1908 26.2549 38.1475 25.6364 38.1475 25.0674ZM38.667 16.3281L38.7041 18.7402H36.4219C35.6426 18.7402 34.9313 18.8268 34.2881 19C33.6572 19.1732 33.113 19.4268 32.6553 19.7607C32.1976 20.0824 31.8451 20.4844 31.5977 20.9668C31.3626 21.4492 31.2451 21.9997 31.2451 22.6182C31.2451 23.4222 31.3564 24.0654 31.5791 24.5479C31.8018 25.0179 32.1357 25.3581 32.5811 25.5684C33.0264 25.7786 33.5892 25.8838 34.2695 25.8838C35.0983 25.8838 35.8281 25.6921 36.459 25.3086C37.0898 24.9251 37.5785 24.4613 37.9248 23.917C38.2835 23.3727 38.4505 22.8656 38.4258 22.3955L39.1494 23.9355C39.0999 24.418 38.9391 24.9437 38.667 25.5127C38.4072 26.0693 38.0423 26.6074 37.5723 27.127C37.1022 27.6341 36.5456 28.0547 35.9023 28.3887C35.2715 28.7103 34.5602 28.8711 33.7686 28.8711C32.6058 28.8711 31.5853 28.6484 30.707 28.2031C29.8411 27.7578 29.167 27.1022 28.6846 26.2363C28.2021 25.3704 27.9609 24.3005 27.9609 23.0264C27.9609 22.0615 28.1279 21.1709 28.4619 20.3545C28.7959 19.5381 29.2907 18.833 29.9463 18.2393C30.6019 17.6331 31.4245 17.1631 32.4141 16.8291C33.416 16.4951 34.5726 16.3281 35.8838 16.3281H38.667ZM50.8945 26.4219L55.3662 8.42383H58.8545L52.2305 31.5986C52.0697 32.0934 51.8532 32.6253 51.5811 33.1943C51.3213 33.7757 50.9873 34.3262 50.5791 34.8457C50.1709 35.3652 49.6823 35.7858 49.1133 36.1074C48.5443 36.4414 47.8763 36.6084 47.1094 36.6084C46.8743 36.6084 46.5713 36.5713 46.2002 36.4971C45.8415 36.4229 45.5817 36.361 45.4209 36.3115V33.5283C45.4951 33.5407 45.6126 33.5531 45.7734 33.5654C45.9342 33.5902 46.0518 33.6025 46.126 33.6025C46.7692 33.6025 47.3135 33.4974 47.7588 33.2871C48.2165 33.0892 48.6061 32.749 48.9277 32.2666C49.2493 31.7965 49.5215 31.1471 49.7441 30.3184L50.8945 26.4219ZM48 8.42383L51.9893 24.0098L52.8428 27.6279L50.5049 28.8896L44.4189 8.42383H48Z" fill="#61C9FF"/>
</svg>
