<svg width="67" height="21" viewBox="0 0 67 21" fill="none" xmlns="http://www.w3.org/2000/svg">
<path d="M10.6787 15.3604C10.6787 14.8532 10.555 14.4079 10.3076 14.0244C10.0602 13.641 9.65202 13.2699 9.08301 12.9111C8.52637 12.5524 7.77181 12.1689 6.81934 11.7607C5.8916 11.3773 5.05664 11 4.31445 10.6289C3.58464 10.2454 2.96615 9.83105 2.45898 9.38574C1.95182 8.94043 1.56217 8.42708 1.29004 7.8457C1.03027 7.25195 0.900391 6.55306 0.900391 5.74902C0.900391 4.94499 1.04883 4.2028 1.3457 3.52246C1.65495 2.82975 2.08789 2.22363 2.64453 1.7041C3.20117 1.18457 3.86914 0.782552 4.64844 0.498047C5.42773 0.201172 6.2998 0.0527344 7.26465 0.0527344C8.6377 0.0527344 9.80664 0.318685 10.7715 0.850586C11.7363 1.38249 12.4723 2.1123 12.9795 3.04004C13.499 3.9554 13.7588 4.98828 13.7588 6.13867H10.4932C10.4932 5.58203 10.3695 5.05632 10.1221 4.56152C9.87467 4.06673 9.50977 3.66471 9.02734 3.35547C8.54492 3.03385 7.95736 2.87305 7.26465 2.87305C6.53483 2.87305 5.94108 3.00293 5.4834 3.2627C5.02572 3.52246 4.69173 3.86263 4.48145 4.2832C4.28353 4.69141 4.18457 5.1429 4.18457 5.6377C4.18457 6.00879 4.23405 6.3304 4.33301 6.60254C4.44434 6.8623 4.62988 7.1097 4.88965 7.34473C5.14941 7.56738 5.50195 7.80241 5.94727 8.0498C6.40495 8.28483 6.98633 8.55697 7.69141 8.86621C9.05208 9.39811 10.1963 9.9362 11.124 10.4805C12.0518 11.0247 12.7568 11.6618 13.2393 12.3916C13.7217 13.1214 13.9629 14.0244 13.9629 15.1006C13.9629 15.9788 13.8021 16.7767 13.4805 17.4941C13.1712 18.1992 12.7259 18.8053 12.1445 19.3125C11.5632 19.8197 10.8643 20.2093 10.0479 20.4814C9.24382 20.7412 8.34082 20.8711 7.33887 20.8711C5.82975 20.8711 4.54948 20.5742 3.49805 19.9805C2.45898 19.3743 1.66732 18.5889 1.12305 17.624C0.591146 16.6468 0.325195 15.6016 0.325195 14.4883H3.60938C3.64648 15.4284 3.85677 16.1582 4.24023 16.6777C4.63607 17.1973 5.1123 17.556 5.66895 17.7539C6.22559 17.9518 6.78223 18.0508 7.33887 18.0508C8.06868 18.0508 8.68099 17.9456 9.17578 17.7354C9.67057 17.5127 10.0417 17.1973 10.2891 16.7891C10.5488 16.3809 10.6787 15.9046 10.6787 15.3604ZM28.1016 17.0674V6.17578C28.1016 5.38411 27.9779 4.74707 27.7305 4.26465C27.4954 3.78223 27.1367 3.42969 26.6543 3.20703C26.1842 2.98438 25.5905 2.87305 24.873 2.87305C24.1803 2.87305 23.5804 3.0153 23.0732 3.2998C22.5785 3.58431 22.195 3.96159 21.9229 4.43164C21.6631 4.90169 21.5332 5.42122 21.5332 5.99023H18.249C18.249 5.27279 18.4036 4.56152 18.7129 3.85645C19.0345 3.15137 19.4922 2.51432 20.0859 1.94531C20.6797 1.36393 21.391 0.90625 22.2197 0.572266C23.0609 0.225911 24.001 0.0527344 25.04 0.0527344C26.277 0.0527344 27.3717 0.256836 28.3242 0.665039C29.2767 1.06087 30.0251 1.71029 30.5693 2.61328C31.1136 3.51628 31.3857 4.71615 31.3857 6.21289V16.1211C31.3857 16.7891 31.4352 17.5003 31.5342 18.2549C31.6455 19.0094 31.8001 19.6589 31.998 20.2031V20.5H28.6025C28.4417 20.1042 28.318 19.5785 28.2314 18.9229C28.1449 18.2549 28.1016 17.6364 28.1016 17.0674ZM28.6211 8.32812L28.6582 10.7402H26.376C25.5967 10.7402 24.8854 10.8268 24.2422 11C23.6113 11.1732 23.0671 11.4268 22.6094 11.7607C22.1517 12.0824 21.7992 12.4844 21.5518 12.9668C21.3167 13.4492 21.1992 13.9997 21.1992 14.6182C21.1992 15.4222 21.3105 16.0654 21.5332 16.5479C21.7559 17.0179 22.0898 17.3581 22.5352 17.5684C22.9805 17.7786 23.5433 17.8838 24.2236 17.8838C25.0524 17.8838 25.7822 17.6921 26.4131 17.3086C27.0439 16.9251 27.5326 16.4613 27.8789 15.917C28.2376 15.3727 28.4046 14.8656 28.3799 14.3955L29.1035 15.9355C29.054 16.418 28.8932 16.9437 28.6211 17.5127C28.3613 18.0693 27.9964 18.6074 27.5264 19.127C27.0563 19.6341 26.4997 20.0547 25.8564 20.3887C25.2256 20.7103 24.5143 20.8711 23.7227 20.8711C22.5599 20.8711 21.5394 20.6484 20.6611 20.2031C19.7952 19.7578 19.1211 19.1022 18.6387 18.2363C18.1562 17.3704 17.915 16.3005 17.915 15.0264C17.915 14.0615 18.082 13.1709 18.416 12.3545C18.75 11.5381 19.2448 10.833 19.9004 10.2393C20.556 9.63314 21.3786 9.16309 22.3682 8.8291C23.3701 8.49512 24.5267 8.32812 25.8379 8.32812H28.6211ZM41.3867 17.4014L45.6914 0.423828H49.0312L43.0752 20.5H40.9043L41.3867 17.4014ZM37.917 0.423828L42.4072 17.4941L42.7598 20.5H40.6074L34.5771 0.423828H37.917ZM59.3662 20.8711C58.1663 20.8711 57.084 20.6917 56.1191 20.333C55.1543 19.9743 54.3317 19.43 53.6514 18.7002C52.971 17.958 52.4515 17.0241 52.0928 15.8984C51.734 14.7728 51.5547 13.443 51.5547 11.9092V9.64551C51.5547 7.87663 51.7588 6.37988 52.167 5.15527C52.5876 3.93066 53.1504 2.94727 53.8555 2.20508C54.5605 1.45052 55.3584 0.90625 56.249 0.572266C57.1396 0.225911 58.055 0.0527344 58.9951 0.0527344C60.2568 0.0527344 61.333 0.256836 62.2236 0.665039C63.1143 1.07324 63.8379 1.67936 64.3945 2.4834C64.9512 3.28743 65.3594 4.27702 65.6191 5.45215C65.8913 6.62728 66.0273 7.98177 66.0273 9.51562V11.4268H53.4844V8.625H62.7432V8.16113C62.6937 7.12207 62.5514 6.20671 62.3164 5.41504C62.0938 4.62337 61.7227 4.00488 61.2031 3.55957C60.6836 3.10189 59.9476 2.87305 58.9951 2.87305C58.389 2.87305 57.8262 2.97819 57.3066 3.18848C56.7995 3.38639 56.3604 3.73893 55.9893 4.24609C55.6305 4.74089 55.346 5.42741 55.1357 6.30566C54.9378 7.18392 54.8389 8.2972 54.8389 9.64551V11.9092C54.8389 12.9854 54.9378 13.9131 55.1357 14.6924C55.346 15.4593 55.6491 16.0964 56.0449 16.6035C56.4531 17.0983 56.9479 17.4694 57.5293 17.7168C58.123 17.9518 58.7972 18.0693 59.5518 18.0693C60.6527 18.0693 61.5618 17.859 62.2793 17.4385C62.9967 17.0055 63.6214 16.4551 64.1533 15.7871L65.8789 17.8467C65.5202 18.3538 65.0501 18.8424 64.4688 19.3125C63.8997 19.7702 63.1947 20.1475 62.3535 20.4443C61.5247 20.7288 60.529 20.8711 59.3662 20.8711Z" fill="#61C9FF"/>
</svg>
