<svg width="235" height="86" viewBox="0 0 235 86" fill="none" xmlns="http://www.w3.org/2000/svg">
<path d="M25.207 67.6055C25.207 70.5352 23.7188 72 20.7422 72H7.20703C4.23047 72 2.74219 70.5352 2.74219 67.6055V59.9766H10.4414V65.9531H17.5078V60.3281L5.16797 53.0508C3.55078 52.0898 2.74219 50.8008 2.74219 49.1836V40.8867C2.74219 37.957 4.25391 36.4922 7.27734 36.4922H20.6719C23.6484 36.4922 25.1367 37.957 25.1367 40.8867V48.0234H17.5078V42.5391H10.4414V47.6719L22.7461 54.8789C24.3867 55.8164 25.207 57.1289 25.207 58.8164V67.6055ZM54.4922 72H46.4766V70.7695C44.625 71.0742 42.7617 71.3789 40.8867 71.6836C38.6133 72.0352 36.7383 72.2109 35.2617 72.2109C32.332 72.2109 30.8672 70.7461 30.8672 67.8164V36.4922H38.8477V65.3203L46.4766 65.1445V36.4922H54.4922V72ZM83.8828 72H75.8672V70.7695C70.4297 71.7305 67.3828 72.2109 66.7266 72.2109C64.7109 72.2109 63.1289 71.625 61.9805 70.4531C60.832 69.2578 60.2578 67.6406 60.2578 65.6016V43.6289C60.2578 40.7461 61.2891 38.7422 63.3516 37.6172C64.8516 36.7734 67.125 36.3516 70.1719 36.3516C70.8516 36.3516 71.8359 36.375 73.125 36.4219C74.4141 36.4688 75.3281 36.4922 75.8672 36.4922V16.9805H83.8828V72ZM75.8672 65.0742V43.207H70.9102C69.1289 43.207 68.2383 44.0977 68.2383 45.8789V62.8594C68.2383 64.5938 69.082 65.4609 70.7695 65.4609C71.168 65.4609 72.8672 65.332 75.8672 65.0742ZM113.133 67.6055C113.133 70.5352 111.645 72 108.668 72H94.2539C91.2305 72 89.7188 70.5352 89.7188 67.6055V40.8867C89.7188 37.957 91.2305 36.4922 94.2539 36.4922H108.668C111.645 36.4922 113.133 37.957 113.133 40.8867V67.6055ZM105.258 65.3203V43.207H97.6289V65.3203H105.258Z" fill="white"/>
<rect x="125" y="16" width="16" height="16" rx="2" fill="#61C9FF"/>
<rect x="125" y="36" width="16" height="16" rx="2" fill="#61C9FF"/>
<rect x="125" y="56" width="16" height="16" rx="2" fill="#61C9FF"/>
<path d="M175.578 72H167L159.934 55.7227V72H151.883V16.9805H159.934V50.0273L166.297 36.4922H174.699V36.6328L166.508 52.7695L175.578 72ZM202.438 67.6055C202.438 70.5352 200.949 72 197.973 72H183.559C180.535 72 179.023 70.5352 179.023 67.6055V40.8867C179.023 37.957 180.535 36.4922 183.559 36.4922H197.973C200.949 36.4922 202.438 37.957 202.438 40.8867V67.6055ZM194.562 65.3203V43.207H186.934V65.3203H194.562ZM231.688 67.6055C231.688 70.5352 230.199 72 227.223 72H212.809C209.785 72 208.273 70.5352 208.273 67.6055V40.8867C208.273 37.957 209.785 36.4922 212.809 36.4922H227.223C230.199 36.4922 231.688 37.957 231.688 40.8867V67.6055ZM223.812 65.3203V43.207H216.184V65.3203H223.812Z" fill="white"/>
</svg>
