<svg width="782" height="286" viewBox="0 0 782 286" fill="none" xmlns="http://www.w3.org/2000/svg">
<path d="M384.204 193.845C384.204 199.948 381.104 203 374.902 203H344.873C338.574 203 335.425 199.948 335.425 193.845V138.181C335.425 132.077 338.574 129.025 344.873 129.025H374.902C381.104 129.025 384.204 132.077 384.204 138.181V193.845ZM367.798 189.084V143.015H351.904V189.084H367.798Z" fill="white"/>
<path d="M323.267 203H306.567V200.437C295.239 202.438 288.892 203.439 287.524 203.439C283.325 203.439 280.029 202.219 277.637 199.777C275.244 197.287 274.048 193.918 274.048 189.67V143.894C274.048 137.888 276.196 133.713 280.493 131.369C283.618 129.611 288.354 128.732 294.702 128.732C296.118 128.732 298.169 128.781 300.854 128.879C303.54 128.977 305.444 129.025 306.567 129.025V88.376H323.267V203ZM306.567 188.571V143.015H296.24C292.529 143.015 290.674 144.87 290.674 148.581V183.957C290.674 187.57 292.432 189.377 295.947 189.377C296.777 189.377 300.317 189.108 306.567 188.571Z" fill="white"/>
<path d="M262.036 203H245.337V200.437C241.479 201.071 237.598 201.706 233.691 202.341C228.955 203.073 225.049 203.439 221.973 203.439C215.869 203.439 212.817 200.388 212.817 194.284V129.025H229.443V189.084L245.337 188.718V129.025H262.036V203Z" fill="white"/>
<path d="M201.025 193.845C201.025 199.948 197.925 203 191.724 203H163.525C157.324 203 154.224 199.948 154.224 193.845V177.951H170.264V190.402H184.985V178.684L159.277 163.522C155.908 161.521 154.224 158.835 154.224 155.466V138.181C154.224 132.077 157.373 129.025 163.672 129.025H191.577C197.778 129.025 200.879 132.077 200.879 138.181V153.049H184.985V141.623H170.264V152.316L195.898 167.331C199.316 169.284 201.025 172.019 201.025 175.534V193.845Z" fill="white"/>
<path d="M405.511 91C405.511 89.8954 406.406 89 407.511 89H438.511C439.615 89 440.511 89.8954 440.511 91V122C440.511 123.105 439.615 124 438.511 124H407.511C406.406 124 405.511 123.105 405.511 122V91Z" fill="#61C9FF"/>
<path d="M405.511 130C405.511 128.895 406.406 128 407.511 128H438.511C439.615 128 440.511 128.895 440.511 130V161C440.511 162.105 439.615 163 438.511 163H407.511C406.406 163 405.511 162.105 405.511 161V130Z" fill="#61C9FF"/>
<path d="M405.511 169C405.511 167.895 406.406 167 407.511 167H438.511C439.615 167 440.511 167.895 440.511 169V200C440.511 201.105 439.615 202 438.511 202H407.511C406.406 202 405.511 201.105 405.511 200V169Z" fill="#61C9FF"/>
<path d="M627.776 193.845C627.776 199.948 624.676 203 618.475 203H588.445C582.146 203 578.997 199.948 578.997 193.845V138.181C578.997 132.077 582.146 129.025 588.445 129.025H618.475C624.676 129.025 627.776 132.077 627.776 138.181V193.845ZM611.37 189.084V143.015H595.477V189.084H611.37Z" fill="white"/>
<path d="M566.839 193.845C566.839 199.948 563.738 203 557.537 203H527.508C521.209 203 518.06 199.948 518.06 193.845V138.181C518.06 132.077 521.209 129.025 527.508 129.025H557.537C563.738 129.025 566.839 132.077 566.839 138.181V193.845ZM550.433 189.084V143.015H534.539V189.084H550.433Z" fill="white"/>
<path d="M510.882 203H493.011L478.289 169.089V203H461.517V88.376H478.289V157.224L491.546 129.025H509.051V129.318L491.985 162.937L510.882 203Z" fill="white"/>
</svg>
